<?xml version="1.0" encoding="utf-8"?>
<!-- Generator: Adobe Illustrator 26.3.1, SVG Export Plug-In . SVG Version: 6.00 Build 0)  -->
<svg version="1.1" id="Layer_1" xmlns="http://www.w3.org/2000/svg" xmlns:xlink="http://www.w3.org/1999/xlink" x="0px" y="0px"
	 viewBox="0 0 86.2 24.6" style="enable-background:new 0 0 86.2 24.6;" xml:space="preserve">
<style type="text/css">
	.st0{fill:#FFFFFF;}
</style>
<path class="st0" d="M46.7,15.9c0,0.6-0.2,1.2-0.7,1.6s-1.4,0.8-2.9,0.8h-3v-4.8H43c1.3,0,2.3,0.3,2.9,0.7
	C46.4,14.6,46.8,15.3,46.7,15.9 M44.3,10.1c0.6-0.4,0.8-1,0.8-1.8c0-0.6-0.2-1.1-0.6-1.5s-1.1-0.6-2.3-0.6h-2.1v4.6h1.5
	C42.8,10.8,43.7,10.6,44.3,10.1 M50,16.3c0-2.2-1.5-3.9-3.9-4.6c0.6-0.3,1.1-0.7,1.5-1.2c0.5-0.7,0.7-1.5,0.7-2.4
	c0-1.2-0.5-2.4-1.4-3.2c-1-0.9-2.5-1.4-4.5-1.4h-5.6v17.7h6.5c2.3,0,4-0.6,5-1.6C49.4,18.7,50,17.6,50,16.3 M56.2,24.6H30.1V0h26.1
	V24.6z M14.2,10.1c0.6-0.4,0.8-1,0.8-1.8c0-0.6-0.2-1.1-0.6-1.5s-1.1-0.6-2.3-0.6H10v4.6h1.5C12.7,10.8,13.6,10.6,14.2,10.1
	 M15.8,14.2c-0.6-0.4-1.5-0.7-2.9-0.7H10v4.8h3c1.5,0,2.4-0.3,2.9-0.8s0.7-1,0.7-1.6C16.7,15.3,16.3,14.6,15.8,14.2 M19.9,16.3
	c0-2.2-1.5-3.9-3.9-4.6c0.6-0.3,1.1-0.7,1.5-1.2c0.5-0.7,0.7-1.5,0.7-2.4c0-1.2-0.5-2.4-1.4-3.2c-1-0.9-2.4-1.4-4.5-1.4H6.8v17.7
	h6.5c2.3,0,4-0.6,5-1.6S19.9,17.4,19.9,16.3 M26.1,24.6H0V0h26.1V24.6z M81.1,16.4l-0.4,0.3c-2,1.2-4.2,1.9-6.2,1.9
	c-4.3,0-7.1-2.5-7.1-6.2c0-3.6,2.9-6.3,7-6.3c2.1,0,3.9,0.5,6.1,1.8L80.9,8V4.7l-0.2-0.1c-2.5-1-4.4-1.4-6.4-1.4c-3,0-5.5,1-7.4,2.6
	s-2.9,4-2.9,6.7c0,1.9,0.8,4.1,2.4,5.8c1.7,1.7,4.2,3,7.7,3h0c2.9,0,4.9-0.6,6.7-1.5l0.2-0.1L81.1,16.4z M86.2,24.6H60.1V0h26.1
	V24.6z"/>
</svg>
