<?xml version="1.0" encoding="utf-8"?>
<!-- Generator: Adobe Illustrator 26.3.1, SVG Export Plug-In . SVG Version: 6.00 Build 0)  -->
<svg version="1.1" id="Layer_1" xmlns="http://www.w3.org/2000/svg" xmlns:xlink="http://www.w3.org/1999/xlink" x="0px" y="0px"
	 viewBox="0 0 66.5 66.5" style="enable-background:new 0 0 66.5 66.5;" xml:space="preserve">
<style type="text/css">
	.st0{fill:#FFFFFF;}
</style>
<g>
	<path class="st0" d="M52.6,57.7c0.2,0.3,0.4,0.5,0.6,0.8c0.2,0.3,0.4,0.5,0.6,0.7c-9.6,8.3-27.8,11.2-41.8-0.4
		C-2.6,46.8-4,25,8.5,11.1C21.1-3,42.8-3.8,56.4,9.5c13.2,12.8,12,31.5,4.6,42c-0.5-0.4-1-0.8-1.6-1.1c5.3-8.6,6.5-17.7,3.3-27.3
		c-2.4-7.2-7-12.7-13.5-16.6C36.4-1.2,19.5,1.3,9.5,13.1c-9.8,11.5-9.9,28.6-0.1,40.2c3.5,4.2,7.8,7.3,12.9,9.2
		c5.1,1.9,10.4,2.4,15.8,1.6C43.5,63.3,48.3,61.1,52.6,57.7z"/>
	<path class="st0" d="M9.8,41.8c-0.6,0.3-1.2,0.7-1.8,1c-1.7-4.7-2.2-9.5-1.3-14.4c1.3-7.1,5-12.9,10.9-17.1
		c11.8-8.5,28.3-6.1,37.2,5.5c8.8,11.4,7.2,28.1-4.5,37.5c-11.3,9.1-27.4,7.5-36.7-2.6c0.6-0.4,1.1-0.8,1.7-1.1
		c5.3,5.3,11.7,8,19.2,7.7c6-0.2,11.2-2.4,15.6-6.5c9.2-8.3,10.9-21.8,4.2-32.1C47.6,9.6,34.9,5.6,23.8,10.2
		c-6.2,2.5-10.7,6.9-13.4,13C7.7,29.3,7.6,35.5,9.8,41.8z"/>
	<path class="st0" d="M41.1,30.6c0.7,0,1.4,0.1,2.2,0.1c-0.7,0.4-1.3,0.8-1.9,1.1c0,0.2,0,0.4,0.1,0.7c0.7,0.2,1.4,0.4,2.2,0.7
		c-0.8,0.2-1.5,0.4-2.1,0.6c0,0.2-0.1,0.4-0.1,0.7c0.6,0.4,1.2,0.7,1.9,1.2c-0.8,0-1.5,0.1-2.2,0.1c-0.1,0.2-0.2,0.4-0.2,0.7
		c0.5,0.5,1,1,1.6,1.6c-0.8-0.2-1.5-0.3-2.2-0.4c-0.1,0.2-0.3,0.4-0.4,0.6c0.4,0.6,0.7,1.2,1.1,1.9c-0.7-0.3-1.3-0.6-2-0.9
		c-0.2,0.1-0.3,0.3-0.5,0.4c0.1,0.7,0.4,1.3,0.6,2.1c-0.6-0.5-1.1-0.9-1.7-1.3c-0.2,0.1-0.4,0.2-0.6,0.3c0,0.7,0.1,1.4,0.1,2
		c0,0,0,0-0.1,0c-0.4-0.5-0.8-1.1-1.3-1.6c-0.2,0.1-0.4,0.1-0.7,0.2c-0.1,0.7-0.2,1.3-0.4,2c0,0-0.1,0-0.1,0
		c-0.1-0.3-0.3-0.6-0.4-0.9c-0.1-0.3-0.3-0.6-0.4-1c-0.2,0-0.5,0-0.8,0c-0.3,0.6-0.6,1.2-0.9,2c-0.1-0.8-0.3-1.5-0.4-2.1
		c-0.2-0.1-0.5-0.1-0.7-0.2c-0.4,0.5-0.8,1.1-1.2,1.6c0,0-0.1,0-0.1,0c0-0.7,0.1-1.3,0.1-2c-0.2-0.1-0.4-0.2-0.6-0.3
		c-0.5,0.4-1,0.8-1.6,1.2c0,0-0.1,0-0.1-0.1c0.2-0.6,0.4-1.3,0.6-1.9c-0.2-0.2-0.3-0.3-0.5-0.5c-0.6,0.3-1.3,0.6-1.9,0.9
		c0,0,0,0-0.1,0c0.4-0.6,0.7-1.2,1.1-1.8c-0.1-0.2-0.2-0.4-0.4-0.6c-0.7,0.1-1.4,0.3-2.2,0.4c0.6-0.5,1.1-1,1.6-1.5
		c-0.1-0.3-0.2-0.5-0.3-0.8c-0.7,0-1.4-0.1-2.2-0.1c0.7-0.4,1.3-0.8,1.9-1.1c0-0.2,0-0.4-0.1-0.7c-0.7-0.2-1.4-0.4-2.1-0.6
		c0.8-0.2,1.4-0.4,2.1-0.7c0-0.2,0.1-0.4,0.1-0.7c-0.6-0.4-1.2-0.7-1.9-1.2c0.8,0,1.5-0.1,2.2-0.1c0.1-0.2,0.2-0.4,0.3-0.6
		c-0.5-0.5-1.1-1-1.6-1.5c0,0,0-0.1,0.1-0.1c0.7,0.1,1.4,0.3,2.2,0.4c0.1-0.2,0.2-0.3,0.4-0.5c-0.4-0.6-0.7-1.2-1.2-2
		c0.7,0.3,1.4,0.6,2.1,1c0.1-0.1,0.3-0.3,0.5-0.4c-0.2-0.7-0.4-1.3-0.6-2c0,0,0.1,0,0.1-0.1c0.5,0.4,1.1,0.8,1.6,1.3
		c0.2-0.1,0.3-0.2,0.6-0.3c0-0.7-0.1-1.4-0.1-2.1c0,0,0.1,0,0.1,0c0.4,0.6,0.9,1.1,1.3,1.7c0.2-0.1,0.4-0.1,0.6-0.2
		c0.1-0.7,0.2-1.4,0.4-2.1c0,0,0.1,0,0.1,0c0.3,0.7,0.6,1.3,0.9,2c0.2,0,0.4,0,0.6,0c0.3-0.7,0.6-1.3,0.9-2c0,0,0.1,0,0.1,0
		c0.1,0.7,0.3,1.4,0.4,2.1c0.2,0.1,0.4,0.1,0.6,0.2c0.4-0.6,0.9-1.1,1.3-1.7c0,0,0.1,0,0.1,0c0,0.7-0.1,1.4-0.1,2.1
		c0.2,0.1,0.4,0.2,0.6,0.3c0.6-0.5,1.2-0.9,1.8-1.4c-0.2,0.8-0.5,1.5-0.7,2.2c0.2,0.1,0.3,0.3,0.5,0.4c0.7-0.3,1.3-0.6,2-0.9
		c0,0,0,0,0.1,0.1c-0.4,0.6-0.7,1.2-1.1,1.8c0.1,0.2,0.2,0.3,0.4,0.6c0.7-0.1,1.4-0.3,2.2-0.4c-0.6,0.6-1.1,1.1-1.6,1.6
		C41,30.2,41.1,30.4,41.1,30.6z"/>
	<path class="st0" d="M48,21.8c0.4-0.5,0.9-1.1,1.3-1.6c0.8,0.6,2.5,3.4,3.4,5.6c1.5,4,1.8,8.1,0.8,12.2
		c-1.9,8.1-8.5,14.5-17.1,15.8c-8.7,1.3-16.8-3-20.6-9.4c0-0.1,0.1-0.1,0.1-0.3c-0.1,0-0.2,0.1-0.2,0.1c0,0-0.1,0-0.1-0.1
		c-0.2-0.6-0.6-1-0.9-1.5c-0.4-0.8-0.8-1.5-1-2.3c-1-2.7-1.4-5.6-1.2-8.5c0.3-4.6,2-8.7,5.1-12.3c2.1-2.5,4.7-4.3,7.7-5.6
		c1.9-0.8,3.9-1.3,6-1.5c2.8-0.3,5.5,0,8.2,0.9c0.4,0.1,0.8,0.4,1.3,0.5c0,0.4-0.2,0.5-0.4,0.6c-0.2,0.4-0.3,0.8-0.5,1.1
		c-5.7-1.9-11.1-1.5-16.2,1.5c-3.9,2.3-6.7,5.8-8.1,10.1c-2.7,8.1,0.4,17.3,8.1,22c7.5,4.6,17.1,3.3,23.2-3.1
		C53,39.7,54,29.5,48,21.8z"/>
	<path class="st0" d="M19,30.5c0.7,0.3,1.3,0.5,1.9,0.7c-0.5,3.5,0.2,6.6,2.3,9.5c1.7,2.3,3.9,3.8,6.6,4.6
		c5.5,1.6,11.3-0.7,14.2-5.6c2.9-5,2.1-11.2-2-15.3c-4-3.9-10.5-5-15.8-1.4c-0.5-0.5-1-0.9-1.5-1.4c4.2-3.4,12.1-4.4,17.9,0.6
		c6,5,6.5,13.4,2.9,18.9c-0.1,0-0.2,0-0.4,0c0.1,0,0.2,0.1,0.3,0.1c-0.2,0.3-0.3,0.6-0.6,0.7c0,0,0,0,0,0c0.1,0.2,0,0.3-0.1,0.4
		c-1.3,1.6-2.9,2.9-4.7,3.9c-2.4,1.2-4.9,1.7-7.5,1.6c-3.9-0.3-7.2-1.8-9.8-4.7c-1.7-1.8-2.8-4-3.4-6.4c-0.5-2-0.5-3.9-0.2-5.9
		C19,30.6,19,30.6,19,30.5z"/>
	<path class="st0" d="M57.2,52c1.7,0,3.1,1.4,3,3.2c0,1.7-1.4,3-3.1,3c-1.7,0-3.1-1.3-3.1-3.1C54.1,53.1,55.7,52,57.2,52z"/>
	<path class="st0" d="M21.9,29.1c-1.7,0-3.1-1.3-3.1-3c0-1.7,1.3-3.1,3-3.1c1.6-0.1,3.2,1.3,3.2,3C24.9,28,23.3,29.1,21.9,29.1z"/>
	<path class="st0" d="M41.6,17.6c0.1-0.4,0.1-0.8,0.2-1.1c0.5-1.1,1.4-1.8,2.7-1.9c0.1,0,0.2,0,0.4,0c0.3,0.1,0.6,0.1,0.8,0.2
		c0.2,0.1,0.4,0.1,0.6,0.2c0.5,0.4,1,0.8,1.3,1.4c0.2,0.5,0.3,1.1,0.2,1.7c-0.2,1.3-1.1,2.3-2.4,2.5c-1.7,0.4-3.3-0.6-3.7-2.3
		C41.6,18.2,41.7,17.9,41.6,17.6C41.7,17.6,41.6,17.6,41.6,17.6z"/>
	<path class="st0" d="M14.4,47.6c-0.2,0-0.3-0.1-0.4-0.1c0,0,0,0,0,0.1c0.1,0.1,0.2,0.2,0.3,0.2c-0.3,1.1-1.1,1.7-2.1,1.9
		c-1.3,0.3-2.4-0.1-3.3-1.2c-0.7-1-0.8-2.4-0.1-3.4c0.4-0.7,1.1-1.1,1.8-1.3c0.5-0.2,1-0.2,1.5-0.1c0.3,0.1,0.5,0.1,0.7,0.4
		c0,0.1,0.1,0.1,0.2,0.1c0.8,0.3,1.1,0.9,1.4,1.6c0,0.1,0,0.1,0,0.2c0,0.4,0,0.8,0,1.3C14.4,47.4,14.4,47.5,14.4,47.6z"/>
</g>
</svg>
